<?xml version="1.0" encoding="UTF-8" standalone="no"?>
<!-- Created with Inkscape (http://www.inkscape.org/) -->

<svg
   xmlns:dc="http://purl.org/dc/elements/1.1/"
   xmlns:cc="http://creativecommons.org/ns#"
   xmlns:rdf="http://www.w3.org/1999/02/22-rdf-syntax-ns#"
   xmlns:svg="http://www.w3.org/2000/svg"
   xmlns="http://www.w3.org/2000/svg"
   xmlns:xlink="http://www.w3.org/1999/xlink"
   xmlns:sodipodi="http://sodipodi.sourceforge.net/DTD/sodipodi-0.dtd"
   xmlns:inkscape="http://www.inkscape.org/namespaces/inkscape"
   width="400"
   height="200"
   id="svg2160"
   sodipodi:version="0.32"
   inkscape:version="0.48.4 r9939"
   sodipodi:docname="Splash.svg"
   inkscape:output_extension="org.inkscape.output.svg.inkscape"
   version="1.1"
   inkscape:export-filename="Splash.png"
   inkscape:export-xdpi="90"
   inkscape:export-ydpi="90">
  <defs
     id="defs2162">
    <linearGradient
       inkscape:collect="always"
       id="linearGradient12892">
      <stop
         style="stop-color:#c80000;stop-opacity:1;"
         offset="0"
         id="stop12894" />
      <stop
         style="stop-color:#c80000;stop-opacity:0;"
         offset="1"
         id="stop12896" />
    </linearGradient>
    <linearGradient
       inkscape:collect="always"
       id="linearGradient11915">
      <stop
         style="stop-color:#c80000;stop-opacity:1;"
         offset="0"
         id="stop11917" />
      <stop
         style="stop-color:#c80000;stop-opacity:0;"
         offset="1"
         id="stop11919" />
    </linearGradient>
    <linearGradient
       inkscape:collect="always"
       id="linearGradient10933">
      <stop
         style="stop-color:#c80000;stop-opacity:1;"
         offset="0"
         id="stop10935" />
      <stop
         style="stop-color:#c80000;stop-opacity:0;"
         offset="1"
         id="stop10937" />
    </linearGradient>
    <linearGradient
       inkscape:collect="always"
       id="linearGradient9954">
      <stop
         style="stop-color:#c80000;stop-opacity:1;"
         offset="0"
         id="stop9956" />
      <stop
         style="stop-color:#c80000;stop-opacity:0;"
         offset="1"
         id="stop9958" />
    </linearGradient>
    <linearGradient
       inkscape:collect="always"
       id="linearGradient7027">
      <stop
         style="stop-color:#00c800;stop-opacity:1;"
         offset="0"
         id="stop7029" />
      <stop
         style="stop-color:#00c800;stop-opacity:0;"
         offset="1"
         id="stop7031" />
    </linearGradient>
    <linearGradient
       id="linearGradient3141">
      <stop
         style="stop-color:#00c800;stop-opacity:1;"
         offset="0"
         id="stop3143" />
      <stop
         style="stop-color:#00c800;stop-opacity:0;"
         offset="1"
         id="stop3145" />
    </linearGradient>
    <linearGradient
       inkscape:collect="always"
       xlink:href="#linearGradient3141"
       id="linearGradient3147"
       x1="4.9375"
       y1="39.909775"
       x2="56.04245"
       y2="39.909775"
       gradientUnits="userSpaceOnUse"
       gradientTransform="translate(-2.9375,1.1179504)" />
    <linearGradient
       inkscape:collect="always"
       xlink:href="#linearGradient7027"
       id="linearGradient7037"
       x1="63.0625"
       y1="33.952381"
       x2="44.975094"
       y2="33.952381"
       gradientUnits="userSpaceOnUse" />
    <linearGradient
       inkscape:collect="always"
       xlink:href="#linearGradient3141"
       id="linearGradient7041"
       gradientUnits="userSpaceOnUse"
       gradientTransform="translate(-2.9375,1.1179504)"
       x1="33.007675"
       y1="5.2330832"
       x2="39.601345"
       y2="29.934837" />
    <linearGradient
       inkscape:collect="always"
       xlink:href="#linearGradient9954"
       id="linearGradient9960"
       x1="-8.9375"
       y1="47"
       x2="-8.9375"
       y2="9.4661655"
       gradientUnits="userSpaceOnUse"
       gradientTransform="translate(32,10)" />
    <linearGradient
       inkscape:collect="always"
       xlink:href="#linearGradient10933"
       id="linearGradient10939"
       x1="39.062813"
       y1="14.182958"
       x2="21.851973"
       y2="26.533834"
       gradientUnits="userSpaceOnUse" />
    <linearGradient
       inkscape:collect="always"
       xlink:href="#linearGradient11915"
       id="linearGradient11921"
       x1="10.097901"
       y1="20.565163"
       x2="68.130173"
       y2="20.565163"
       gradientUnits="userSpaceOnUse" />
    <linearGradient
       inkscape:collect="always"
       xlink:href="#linearGradient12892"
       id="linearGradient12898"
       x1="55.378605"
       y1="52.256451"
       x2="55.378605"
       y2="7.9055719"
       gradientUnits="userSpaceOnUse" />
    <linearGradient
       inkscape:collect="always"
       xlink:href="#linearGradient7027"
       id="linearGradient3868"
       gradientUnits="userSpaceOnUse"
       x1="63.0625"
       y1="33.952381"
       x2="44.975094"
       y2="33.952381" />
    <linearGradient
       inkscape:collect="always"
       xlink:href="#linearGradient9954"
       id="linearGradient3870"
       gradientUnits="userSpaceOnUse"
       gradientTransform="translate(32,10)"
       x1="-8.9375"
       y1="47"
       x2="-8.9375"
       y2="9.4661655" />
    <linearGradient
       inkscape:collect="always"
       xlink:href="#linearGradient10933"
       id="linearGradient3872"
       gradientUnits="userSpaceOnUse"
       x1="39.062813"
       y1="14.182958"
       x2="21.851973"
       y2="26.533834" />
    <linearGradient
       inkscape:collect="always"
       xlink:href="#linearGradient12892"
       id="linearGradient3874"
       gradientUnits="userSpaceOnUse"
       x1="55.378605"
       y1="52.256451"
       x2="55.378605"
       y2="7.9055719" />
    <linearGradient
       inkscape:collect="always"
       xlink:href="#linearGradient11915"
       id="linearGradient3876"
       gradientUnits="userSpaceOnUse"
       x1="10.097901"
       y1="20.565163"
       x2="68.130173"
       y2="20.565163" />
    <linearGradient
       inkscape:collect="always"
       xlink:href="#linearGradient11915"
       id="linearGradient3892"
       gradientUnits="userSpaceOnUse"
       x1="10.097901"
       y1="20.565163"
       x2="68.130173"
       y2="20.565163" />
    <linearGradient
       inkscape:collect="always"
       xlink:href="#linearGradient12892"
       id="linearGradient3895"
       gradientUnits="userSpaceOnUse"
       x1="55.378605"
       y1="52.256451"
       x2="55.378605"
       y2="7.9055719" />
    <linearGradient
       inkscape:collect="always"
       xlink:href="#linearGradient10933"
       id="linearGradient3898"
       gradientUnits="userSpaceOnUse"
       x1="39.062813"
       y1="14.182958"
       x2="21.851973"
       y2="26.533834" />
    <linearGradient
       inkscape:collect="always"
       xlink:href="#linearGradient9954"
       id="linearGradient3901"
       gradientUnits="userSpaceOnUse"
       gradientTransform="translate(32,10)"
       x1="-8.9375"
       y1="47"
       x2="-8.9375"
       y2="9.4661655" />
    <linearGradient
       inkscape:collect="always"
       xlink:href="#linearGradient7027"
       id="linearGradient3904"
       gradientUnits="userSpaceOnUse"
       x1="63.0625"
       y1="33.952381"
       x2="44.975094"
       y2="33.952381" />
    <linearGradient
       inkscape:collect="always"
       xlink:href="#linearGradient3141"
       id="linearGradient3940"
       gradientUnits="userSpaceOnUse"
       gradientTransform="translate(-2.9375,1.1179504)"
       x1="4.9375"
       y1="39.909775"
       x2="56.04245"
       y2="39.909775" />
    <linearGradient
       inkscape:collect="always"
       xlink:href="#linearGradient3141"
       id="linearGradient3942"
       gradientUnits="userSpaceOnUse"
       gradientTransform="translate(-2.9375,1.1179504)"
       x1="33.007675"
       y1="5.2330832"
       x2="39.601345"
       y2="29.934837" />
    <linearGradient
       inkscape:collect="always"
       xlink:href="#linearGradient7027"
       id="linearGradient3944"
       gradientUnits="userSpaceOnUse"
       x1="63.0625"
       y1="33.952381"
       x2="44.975094"
       y2="33.952381" />
    <linearGradient
       inkscape:collect="always"
       xlink:href="#linearGradient9954"
       id="linearGradient3946"
       gradientUnits="userSpaceOnUse"
       gradientTransform="translate(32,10)"
       x1="-8.9375"
       y1="47"
       x2="-8.9375"
       y2="9.4661655" />
    <linearGradient
       inkscape:collect="always"
       xlink:href="#linearGradient10933"
       id="linearGradient3948"
       gradientUnits="userSpaceOnUse"
       x1="39.062813"
       y1="14.182958"
       x2="21.851973"
       y2="26.533834" />
    <linearGradient
       inkscape:collect="always"
       xlink:href="#linearGradient12892"
       id="linearGradient3950"
       gradientUnits="userSpaceOnUse"
       x1="55.378605"
       y1="52.256451"
       x2="55.378605"
       y2="7.9055719" />
    <linearGradient
       inkscape:collect="always"
       xlink:href="#linearGradient11915"
       id="linearGradient3952"
       gradientUnits="userSpaceOnUse"
       x1="10.097901"
       y1="20.565163"
       x2="68.130173"
       y2="20.565163" />
  </defs>
  <sodipodi:namedview
     id="base"
     pagecolor="#ffffff"
     bordercolor="#666666"
     borderopacity="1.0"
     inkscape:pageopacity="1"
     inkscape:pageshadow="2"
     inkscape:zoom="3.3525"
     inkscape:cx="200"
     inkscape:cy="100"
     inkscape:current-layer="layer1"
     showgrid="true"
     inkscape:document-units="px"
     inkscape:grid-bbox="true"
     showguides="false"
     inkscape:window-width="1941"
     inkscape:window-height="1100"
     inkscape:window-x="199"
     inkscape:window-y="80"
     inkscape:window-maximized="0" />
  <metadata
     id="metadata2165">
    <rdf:RDF>
      <cc:Work
         rdf:about="">
        <dc:format>image/svg+xml</dc:format>
        <dc:type
           rdf:resource="http://purl.org/dc/dcmitype/StillImage" />
        <dc:title></dc:title>
      </cc:Work>
    </rdf:RDF>
  </metadata>
  <g
     id="layer1"
     inkscape:label="Layer 1"
     inkscape:groupmode="layer"
     transform="translate(0,136)">
    <g
       id="g3917"
       transform="matrix(1.4824235,0,0,1.4824235,22.118542,-80.372275)">
      <g
         id="g3906">
        <rect
           style="color:#000000;fill:url(#linearGradient3940);fill-opacity:1;fill-rule:nonzero;stroke:#00c800;stroke-width:0.1;stroke-linecap:butt;stroke-linejoin:miter;stroke-miterlimit:4;stroke-opacity:1;stroke-dasharray:none;stroke-dashoffset:0;marker:none;visibility:visible;display:inline;overflow:visible;enable-background:accumulate"
           id="rect2168"
           width="44.082706"
           height="31.81955"
           x="2.0625"
           y="25.11795" />
        <path
           style="color:#000000;fill:url(#linearGradient3942);fill-opacity:1;fill-rule:nonzero;stroke:#00c800;stroke-width:0.1;stroke-linecap:butt;stroke-linejoin:miter;stroke-miterlimit:4;stroke-opacity:1;stroke-dasharray:none;stroke-dashoffset:0;marker:none;visibility:visible;display:inline;overflow:visible;enable-background:accumulate"
           d="M 63,17 19,17 2,25 46,25 63,17 z"
           id="path7039"
           inkscape:connector-curvature="0" />
        <path
           style="fill:url(#linearGradient3944);fill-opacity:1;fill-rule:evenodd;stroke:#00c800;stroke-width:0.1;stroke-linecap:butt;stroke-linejoin:miter;stroke-miterlimit:4;stroke-opacity:1;stroke-dasharray:none"
           d="m 46,25 17,-8 0,32 -17,8 0,-32 z"
           id="path3149"
           inkscape:connector-curvature="0" />
        <path
           style="color:#000000;fill:url(#linearGradient3946);fill-opacity:1;fill-rule:nonzero;stroke:#c80000;stroke-width:0.1;stroke-linecap:butt;stroke-linejoin:miter;stroke-miterlimit:4;stroke-opacity:1;stroke-dasharray:none;stroke-dashoffset:0;marker:none;visibility:visible;display:inline;overflow:visible;enable-background:accumulate"
           d="m 21.0625,56.9375 c 0,-0.458647 0,-32 0,-32 l 4,0 0,32 -4,0 z"
           id="path7043"
           sodipodi:nodetypes="ccccc"
           inkscape:connector-curvature="0" />
        <path
           style="color:#000000;fill:url(#linearGradient3948);fill-opacity:1;fill-rule:nonzero;stroke:#c80000;stroke-width:0.1;stroke-linecap:butt;stroke-linejoin:miter;stroke-miterlimit:4;stroke-opacity:1;stroke-dasharray:none;stroke-dashoffset:0;marker:none;visibility:visible;display:inline;overflow:visible;enable-background:accumulate"
           d="m 25,25 17,-8 -4,0 -17,8 4,0 z"
           id="path9962"
           inkscape:connector-curvature="0" />
        <path
           style="color:#000000;fill:url(#linearGradient3950);fill-opacity:1;fill-rule:nonzero;stroke:#c80000;stroke-width:0.1;stroke-linecap:butt;stroke-linejoin:miter;stroke-miterlimit:4;stroke-opacity:1;stroke-dasharray:none;stroke-dashoffset:0;marker:none;visibility:visible;display:inline;overflow:visible;enable-background:accumulate"
           d="m 53.899907,53.34281 -0.0802,-32.080201 c 0,0 3.117794,-1.606516 3.117794,-1.117794 0,0.488722 -0.0802,31.839599 -0.0802,31.839599 l -2.957393,1.358396 z"
           id="path10941"
           sodipodi:nodetypes="ccscc"
           inkscape:connector-curvature="0" />
        <path
           style="color:#000000;fill:url(#linearGradient3952);fill-opacity:1;fill-rule:nonzero;stroke:#c80000;stroke-width:0.1;stroke-linecap:butt;stroke-linejoin:miter;stroke-miterlimit:4;stroke-opacity:1;stroke-dasharray:none;stroke-dashoffset:0;marker:none;visibility:visible;display:inline;overflow:visible;enable-background:accumulate"
           d="M 53.679198,21.240602 10.160401,21.160401 13.117794,19.889725 56.919799,20 53.679198,21.240602 z"
           id="path10944"
           sodipodi:nodetypes="ccccc"
           inkscape:connector-curvature="0" />
        <path
           style="color:#000000;fill:#c80000;fill-opacity:1;fill-rule:evenodd;stroke:#c80000;stroke-width:0.1;stroke-linecap:butt;stroke-linejoin:miter;stroke-miterlimit:4;stroke-opacity:1;stroke-dasharray:none;stroke-dashoffset:0;marker:none;visibility:visible;display:inline;overflow:visible;enable-background:accumulate"
           d="M 21.6875,3.46875 C 19.772733,3.4509856 17.994988,4.6631998 17.03125,7.53125 16.509947,9.0826284 16,14.603697 19,17.125 22,19.646303 31,21 31,21 31.03759,20.93233 30.156249,10.71875 27.15625,6.71875 c -1.5,-2 -3.553983,-3.2322356 -5.46875,-3.25 z m 0.5,2.0625 c 1.56556,0.013163 3.242314,0.9242779 4.46875,2.40625 2.452874,2.963944 2.530738,11.168609 2.5,11.21875 -1e-6,1e-6 -7.024179,-1.070346 -9.15625,-3.5 -2.033694,-2.317547 -2.05123,-5.9754494 -1.625,-7.125 0.787976,-2.1251854 2.24694,-3.0131632 3.8125,-3 z"
           id="path12924"
           inkscape:connector-curvature="0" />
        <path
           id="path14882"
           d="m 39.376143,2.8646973 c 1.914767,-0.017764 3.692512,1.1944498 4.65625,4.0625 0.521303,1.5513784 1.03125,7.0724467 -1.96875,9.5937497 -3,2.521303 -12,3.875 -12,3.875 -0.03759,-0.06767 0.843751,-10.28125 3.84375,-14.2812497 1.5,-2 3.553983,-3.2322356 5.46875,-3.25 z m -0.5,2.0625 c -1.56556,0.013163 -3.242314,0.9242779 -4.46875,2.40625 -2.452874,2.9639437 -2.530738,11.1686087 -2.5,11.2187497 1e-6,1e-6 7.024179,-1.070346 9.15625,-3.5 2.033694,-2.317547 2.05123,-5.9754491 1.625,-7.1249997 -0.787976,-2.1251854 -2.24694,-3.0131632 -3.8125,-3 z"
           style="color:#000000;fill:#c80000;fill-opacity:1;fill-rule:evenodd;stroke:#c80000;stroke-width:0.1;stroke-linecap:butt;stroke-linejoin:miter;stroke-miterlimit:4;stroke-opacity:1;stroke-dasharray:none;stroke-dashoffset:0;marker:none;visibility:visible;display:inline;overflow:visible;enable-background:accumulate"
           inkscape:connector-curvature="0" />
      </g>
      <g
         id="text3784"
         style="font-size:32px;font-style:normal;font-variant:normal;font-weight:400;font-stretch:normal;text-indent:0;text-align:start;text-decoration:none;line-height:normal;letter-spacing:normal;word-spacing:normal;text-transform:none;direction:ltr;block-progression:tb;writing-mode:lr-tb;text-anchor:start;color:#000000;fill:#00bd00;fill-opacity:1;fill-rule:nonzero;stroke:none;stroke-width:1.14300001;marker:none;visibility:visible;display:inline;overflow:visible;enable-background:accumulate;font-family:Bitstream Vera Sans;-inkscape-font-specification:Bitstream Vera Sans">
        <path
           inkscape:connector-curvature="0"
           id="path3808"
           style="marker:none"
           d="m 80.881119,18.486938 3.15625,0 0,21.703125 c -7e-6,2.812499 -0.536464,4.854164 -1.609375,6.125 -1.062504,1.270828 -2.776044,1.906244 -5.140625,1.90625 l -1.203125,0 0,-2.65625 0.984375,0 c 1.395832,-3e-6 2.380206,-0.390628 2.953125,-1.171875 0.572914,-0.781251 0.859372,-2.182292 0.859375,-4.203125 l 0,-21.703125" />
        <path
           inkscape:connector-curvature="0"
           id="path3810"
           style="marker:none"
           d="m 93.474869,30.674438 0,8.546875 5.0625,0 c 1.697901,3e-6 2.953111,-0.348955 3.765621,-1.046875 0.8229,-0.708329 1.23436,-1.786452 1.23438,-3.234375 -2e-5,-1.458325 -0.41148,-2.53124 -1.23438,-3.21875 -0.81251,-0.697905 -2.06772,-1.046863 -3.765621,-1.046875 l -5.0625,0 m 0,-9.59375 0,7.03125 4.671875,0 c 1.541654,1.4e-5 2.687486,-0.286444 3.437496,-0.859375 0.76041,-0.583318 1.14061,-1.468733 1.14063,-2.65625 -2e-5,-1.177064 -0.38022,-2.057272 -1.14063,-2.640625 -0.75001,-0.583312 -1.895842,-0.874979 -3.437496,-0.875 l -4.671875,0 m -3.15625,-2.59375 8.0625,0 c 2.406241,2.4e-5 4.260401,0.500023 5.562501,1.5 1.30206,1.000021 1.95311,2.421895 1.95312,4.265625 -10e-6,1.4271 -0.33335,2.562515 -1,3.40625 -0.66668,0.843764 -1.64585,1.369805 -2.9375,1.578125 1.55207,0.333346 2.75519,1.031262 3.60938,2.09375 0.86456,1.052093 1.29685,2.3698 1.29687,3.953125 -2e-5,2.083338 -0.70835,3.692712 -2.125,4.828125 -1.41668,1.135418 -3.4323,1.703125 -6.046871,1.703125 l -8.375,0 0,-23.328125" />
        <path
           inkscape:connector-curvature="0"
           id="path3812"
           style="marker:none"
           d="m 112.13112,24.315063 2.875,0 0,17.5 -2.875,0 0,-17.5 m 0,-6.8125 2.875,0 0,3.640625 -2.875,0 0,-3.640625" />
        <path
           inkscape:connector-curvature="0"
           id="path3814"
           style="marker:none"
           d="m 131.14674,27.002563 c -0.32293,-0.187485 -0.67709,-0.322901 -1.0625,-0.40625 -0.37501,-0.09373 -0.79167,-0.140609 -1.25,-0.140625 -1.62501,1.6e-5 -2.875,0.531265 -3.75,1.59375 -0.86459,1.052097 -1.29688,2.56772 -1.29687,4.546875 l 0,9.21875 -2.89063,0 0,-17.5 2.89063,0 0,2.71875 c 0.60416,-1.062484 1.39062,-1.848941 2.35937,-2.359375 0.96874,-0.520815 2.14583,-0.781232 3.53125,-0.78125 0.19791,1.8e-5 0.41666,0.01564 0.65625,0.04687 0.23957,0.02085 0.5052,0.05731 0.79688,0.109375 l 0.0156,2.953125" />
        <path
           inkscape:connector-curvature="0"
           id="path3816"
           style="marker:none"
           d="m 137.03737,19.346313 0,4.96875 5.92187,0 0,2.234375 -5.92187,0 0,9.5 c -1e-5,1.427088 0.1927,2.343754 0.57812,2.75 0.39583,0.406253 1.1927,0.609378 2.39063,0.609375 l 2.95312,0 0,2.40625 -2.95312,0 c -2.21876,0 -3.75001,-0.411457 -4.59375,-1.234375 -0.84375,-0.833331 -1.26563,-2.343746 -1.26563,-4.53125 l 0,-9.5 -2.10937,0 0,-2.234375 2.10937,0 0,-4.96875 2.89063,0" />
        <path
           inkscape:connector-curvature="0"
           id="path3818"
           style="marker:none"
           d="m 161.30299,31.252563 0,10.5625 -2.875,0 0,-10.46875 c -1e-5,-1.656237 -0.32293,-2.895819 -0.96875,-3.71875 -0.64584,-0.822901 -1.61459,-1.234359 -2.90625,-1.234375 -1.55209,1.6e-5 -2.77605,0.494807 -3.67187,1.484375 -0.89584,0.989597 -1.34376,2.338554 -1.34375,4.046875 l 0,9.890625 -2.89063,0 0,-24.3125 2.89063,0 0,9.53125 c 0.68749,-1.052067 1.49478,-1.838525 2.42187,-2.359375 0.93749,-0.520815 2.01562,-0.781232 3.23438,-0.78125 2.0104,1.8e-5 3.53123,0.625018 4.5625,1.875 1.03123,1.239599 1.54686,3.067722 1.54687,5.484375" />
        <path
           inkscape:connector-curvature="0"
           id="path3820"
           style="marker:none"
           d="m 178.58424,26.971313 0,-9.46875 2.875,0 0,24.3125 -2.875,0 0,-2.625 c -0.60418,1.041669 -1.3698,1.81771 -2.29687,2.328125 -0.91668,0.5 -2.02084,0.75 -3.3125,0.75 -2.11459,0 -3.83855,-0.843749 -5.17188,-2.53125 -1.32292,-1.687496 -1.98437,-3.906244 -1.98437,-6.65625 0,-2.749988 0.66145,-4.968736 1.98437,-6.65625 1.33333,-1.687482 3.05729,-2.531232 5.17188,-2.53125 1.29166,1.8e-5 2.39582,0.255226 3.3125,0.765625 0.92707,0.500017 1.69269,1.27085 2.29687,2.3125 m -9.79687,6.109375 c -1e-5,2.11459 0.43229,3.776047 1.29687,4.984375 0.875,1.19792 2.07291,1.796877 3.59375,1.796875 1.52083,2e-6 2.71874,-0.598955 3.59375,-1.796875 0.87499,-1.208328 1.31249,-2.869785 1.3125,-4.984375 -1e-5,-2.114572 -0.43751,-3.77082 -1.3125,-4.96875 -0.87501,-1.208318 -2.07292,-1.812484 -3.59375,-1.8125 -1.52084,1.6e-5 -2.71875,0.604182 -3.59375,1.8125 -0.86458,1.19793 -1.29688,2.854178 -1.29687,4.96875" />
        <path
           inkscape:connector-curvature="0"
           id="path3822"
           style="marker:none"
           d="m 195.33424,33.018188 c -2.32292,9e-6 -3.93229,0.265634 -4.82812,0.796875 -0.89584,0.531258 -1.34376,1.437507 -1.34375,2.71875 -1e-5,1.020838 0.33333,1.833337 1,2.4375 0.67708,0.593753 1.59374,0.890627 2.75,0.890625 1.59374,2e-6 2.86978,-0.562497 3.82812,-1.6875 0.96874,-1.135411 1.45311,-2.640618 1.45313,-4.515625 l 0,-0.640625 -2.85938,0 m 5.73438,-1.1875 0,9.984375 -2.875,0 0,-2.65625 c -0.65626,1.062502 -1.47397,1.84896 -2.45313,2.359375 -0.97917,0.5 -2.17709,0.75 -3.59375,0.75 -1.79167,0 -3.21875,-0.499999 -4.28125,-1.5 -1.05208,-1.010414 -1.57812,-2.359371 -1.57812,-4.046875 0,-1.968742 0.65625,-3.453116 1.96875,-4.453125 1.32291,-0.999989 3.29166,-1.499988 5.90625,-1.5 l 4.03125,0 0,-0.28125 c -2e-5,-1.322904 -0.43751,-2.343736 -1.3125,-3.0625 -0.8646,-0.729151 -2.08334,-1.093734 -3.65625,-1.09375 -1.00001,1.6e-5 -1.97397,0.119808 -2.92188,0.359375 -0.94792,0.239599 -1.85938,0.598973 -2.73437,1.078125 l 0,-2.65625 c 1.05208,-0.406232 2.07291,-0.708315 3.0625,-0.90625 0.98957,-0.208315 1.95312,-0.312482 2.89062,-0.3125 2.53124,1.8e-5 4.42187,0.656268 5.67188,1.96875 1.24998,1.312515 1.87498,3.302096 1.875,5.96875" />
        <path
           inkscape:connector-curvature="0"
           id="path3824"
           style="marker:none"
           d="m 214.28737,43.440063 c -0.81251,2.08333 -1.60418,3.442704 -2.375,4.078125 -0.77084,0.635411 -1.80209,0.953119 -3.09375,0.953125 l -2.29688,0 0,-2.40625 1.6875,0 c 0.79167,-4e-6 1.40625,-0.187504 1.84375,-0.5625 0.4375,-0.375003 0.92187,-1.260419 1.45313,-2.65625 l 0.51562,-1.3125 -7.07812,-17.21875 3.04687,0 5.46875,13.6875 5.46875,-13.6875 3.04688,0 -7.6875,19.125" />
        <path
           inkscape:connector-curvature="0"
           id="path3826"
           style="marker:none"
           d="m 237.09987,24.830688 0,2.71875 c -0.81251,-0.416652 -1.65626,-0.729151 -2.53125,-0.9375 -0.87501,-0.208317 -1.78126,-0.312484 -2.71875,-0.3125 -1.42709,1.6e-5 -2.50001,0.218766 -3.21875,0.65625 -0.70834,0.437515 -1.06251,1.093764 -1.0625,1.96875 -1e-5,0.666679 0.2552,1.192721 0.76562,1.578125 0.51041,0.375011 1.53646,0.734386 3.07813,1.078125 l 0.98437,0.21875 c 2.04166,0.43751 3.48957,1.057301 4.34375,1.859375 0.86457,0.791675 1.29686,1.901048 1.29688,3.328125 -2e-5,1.625004 -0.64585,2.911461 -1.9375,3.859375 -1.28126,0.947917 -3.04689,1.421875 -5.29688,1.421875 -0.9375,0 -1.91667,-0.09375 -2.9375,-0.28125 -1.01042,-0.177083 -2.07812,-0.447916 -3.20312,-0.8125 l 0,-2.96875 c 1.0625,0.552087 2.10937,0.968753 3.14062,1.25 1.03125,0.270836 2.05208,0.406252 3.0625,0.40625 1.35416,2e-6 2.39583,-0.229164 3.125,-0.6875 0.72916,-0.468746 1.09374,-1.124996 1.09375,-1.96875 -1e-5,-0.781244 -0.26563,-1.380202 -0.79687,-1.796875 -0.52085,-0.416659 -1.67189,-0.817701 -3.45313,-1.203125 l -1,-0.234375 c -1.78125,-0.374991 -3.06771,-0.947907 -3.85937,-1.71875 -0.79167,-0.781239 -1.1875,-1.848946 -1.1875,-3.203125 0,-1.645818 0.58333,-2.916651 1.75,-3.8125 1.16666,-0.895815 2.82291,-1.343732 4.96875,-1.34375 1.06249,1.8e-5 2.06249,0.07814 3,0.234375 0.93749,0.156268 1.80207,0.390643 2.59375,0.703125" />
      </g>
    </g>
    <rect
       style="color:#000000;fill:none;stroke:#000000;stroke-width:1.0008806;stroke-miterlimit:4;stroke-opacity:1;stroke-dasharray:none;marker:none;visibility:visible;display:inline;overflow:visible;enable-background:accumulate"
       id="rect3954"
       width="398.99911"
       height="198.99911"
       x="0.5004403"
       y="-135.49956" />
  </g>
</svg>
